<svg width="800" height="600" xmlns="http://www.w3.org/2000/svg">
<text x="400" y="20" text-anchor="middle" font-size="16">ZIPF of Kalinin_Proekt-S-T-A-L-K-E-R-_1_Teni-Chernobylya_RuLit_Me</text>
<line x1="50" y1="550" x2="750" y2="550" stroke="black" />
<line x1="50" y1="50" x2="50" y2="550" stroke="black" />
<rect x="55" y="209" width="4" height="341" fill="blue" />
<rect x="60" y="282" width="4" height="268" fill="blue" />
<rect x="65" y="287" width="4" height="263" fill="blue" />
<rect x="70" y="340" width="4" height="210" fill="blue" />
<rect x="75" y="396" width="4" height="154" fill="blue" />
<rect x="80" y="426" width="4" height="124" fill="blue" />
<rect x="85" y="444" width="4" height="106" fill="blue" />
<rect x="90" y="448" width="4" height="102" fill="blue" />
<rect x="95" y="458" width="4" height="92" fill="blue" />
<rect x="100" y="468" width="4" height="82" fill="blue" />
<rect x="105" y="472" width="4" height="78" fill="blue" />
<rect x="110" y="474" width="4" height="76" fill="blue" />
<rect x="115" y="475" width="4" height="75" fill="blue" />
<rect x="120" y="479" width="4" height="71" fill="blue" />
<rect x="125" y="481" width="4" height="69" fill="blue" />
<rect x="130" y="483" width="4" height="67" fill="blue" />
<rect x="135" y="487" width="4" height="63" fill="blue" />
<rect x="140" y="490" width="4" height="60" fill="blue" />
<rect x="145" y="491" width="4" height="59" fill="blue" />
<rect x="150" y="493" width="4" height="57" fill="blue" />
<rect x="155" y="497" width="4" height="53" fill="blue" />
<rect x="160" y="500" width="4" height="50" fill="blue" />
<rect x="165" y="501" width="4" height="49" fill="blue" />
<rect x="170" y="504" width="4" height="46" fill="blue" />
<rect x="175" y="505" width="4" height="45" fill="blue" />
<rect x="180" y="507" width="4" height="43" fill="blue" />
<rect x="185" y="508" width="4" height="42" fill="blue" />
<rect x="190" y="509" width="4" height="41" fill="blue" />
<rect x="195" y="512" width="4" height="38" fill="blue" />
<rect x="200" y="515" width="4" height="35" fill="blue" />
<rect x="205" y="515" width="4" height="35" fill="blue" />
<rect x="210" y="515" width="4" height="35" fill="blue" />
<rect x="215" y="520" width="4" height="30" fill="blue" />
<rect x="220" y="521" width="4" height="29" fill="blue" />
<rect x="225" y="522" width="4" height="28" fill="blue" />
<rect x="230" y="524" width="4" height="26" fill="blue" />
<rect x="235" y="525" width="4" height="25" fill="blue" />
<rect x="240" y="526" width="4" height="24" fill="blue" />
<rect x="245" y="526" width="4" height="24" fill="blue" />
<rect x="250" y="527" width="4" height="23" fill="blue" />
<rect x="255" y="528" width="4" height="22" fill="blue" />
<rect x="260" y="528" width="4" height="22" fill="blue" />
<rect x="265" y="529" width="4" height="21" fill="blue" />
<rect x="270" y="529" width="4" height="21" fill="blue" />
<rect x="275" y="529" width="4" height="21" fill="blue" />
<rect x="280" y="529" width="4" height="21" fill="blue" />
<rect x="285" y="530" width="4" height="20" fill="blue" />
<rect x="290" y="530" width="4" height="20" fill="blue" />
<rect x="295" y="531" width="4" height="19" fill="blue" />
<rect x="300" y="531" width="4" height="19" fill="blue" />
<rect x="305" y="531" width="4" height="19" fill="blue" />
<rect x="310" y="531" width="4" height="19" fill="blue" />
<rect x="315" y="531" width="4" height="19" fill="blue" />
<rect x="320" y="531" width="4" height="19" fill="blue" />
<rect x="325" y="532" width="4" height="18" fill="blue" />
<rect x="330" y="532" width="4" height="18" fill="blue" />
<rect x="335" y="532" width="4" height="18" fill="blue" />
<rect x="340" y="533" width="4" height="17" fill="blue" />
<rect x="345" y="533" width="4" height="17" fill="blue" />
<rect x="350" y="533" width="4" height="17" fill="blue" />
<rect x="355" y="533" width="4" height="17" fill="blue" />
<rect x="360" y="533" width="4" height="17" fill="blue" />
<rect x="365" y="533" width="4" height="17" fill="blue" />
<rect x="370" y="533" width="4" height="17" fill="blue" />
<rect x="375" y="533" width="4" height="17" fill="blue" />
<rect x="380" y="533" width="4" height="17" fill="blue" />
<rect x="385" y="534" width="4" height="16" fill="blue" />
<rect x="390" y="534" width="4" height="16" fill="blue" />
<rect x="395" y="534" width="4" height="16" fill="blue" />
<rect x="400" y="534" width="4" height="16" fill="blue" />
<rect x="405" y="534" width="4" height="16" fill="blue" />
<rect x="410" y="534" width="4" height="16" fill="blue" />
<rect x="415" y="535" width="4" height="15" fill="blue" />
<rect x="420" y="535" width="4" height="15" fill="blue" />
<rect x="425" y="535" width="4" height="15" fill="blue" />
<rect x="430" y="536" width="4" height="14" fill="blue" />
<rect x="435" y="536" width="4" height="14" fill="blue" />
<rect x="440" y="536" width="4" height="14" fill="blue" />
<rect x="445" y="536" width="4" height="14" fill="blue" />
<rect x="450" y="536" width="4" height="14" fill="blue" />
<rect x="455" y="536" width="4" height="14" fill="blue" />
<rect x="460" y="536" width="4" height="14" fill="blue" />
<rect x="465" y="536" width="4" height="14" fill="blue" />
<rect x="470" y="536" width="4" height="14" fill="blue" />
<rect x="475" y="536" width="4" height="14" fill="blue" />
<rect x="480" y="536" width="4" height="14" fill="blue" />
<rect x="485" y="537" width="4" height="13" fill="blue" />
<rect x="490" y="537" width="4" height="13" fill="blue" />
<rect x="495" y="537" width="4" height="13" fill="blue" />
<rect x="500" y="537" width="4" height="13" fill="blue" />
<rect x="505" y="537" width="4" height="13" fill="blue" />
<rect x="510" y="537" width="4" height="13" fill="blue" />
<rect x="515" y="537" width="4" height="13" fill="blue" />
<rect x="520" y="537" width="4" height="13" fill="blue" />
<rect x="525" y="537" width="4" height="13" fill="blue" />
<rect x="530" y="537" width="4" height="13" fill="blue" />
<rect x="535" y="537" width="4" height="13" fill="blue" />
<rect x="540" y="538" width="4" height="12" fill="blue" />
<rect x="545" y="538" width="4" height="12" fill="blue" />
<rect x="550" y="538" width="4" height="12" fill="blue" />
<rect x="555" y="538" width="4" height="12" fill="blue" />
<rect x="560" y="538" width="4" height="12" fill="blue" />
<rect x="565" y="539" width="4" height="11" fill="blue" />
<rect x="570" y="539" width="4" height="11" fill="blue" />
<rect x="575" y="539" width="4" height="11" fill="blue" />
<rect x="580" y="539" width="4" height="11" fill="blue" />
<rect x="585" y="539" width="4" height="11" fill="blue" />
<rect x="590" y="539" width="4" height="11" fill="blue" />
<rect x="595" y="539" width="4" height="11" fill="blue" />
<rect x="600" y="539" width="4" height="11" fill="blue" />
<rect x="605" y="539" width="4" height="11" fill="blue" />
<rect x="610" y="539" width="4" height="11" fill="blue" />
<rect x="615" y="539" width="4" height="11" fill="blue" />
<rect x="620" y="539" width="4" height="11" fill="blue" />
<rect x="625" y="539" width="4" height="11" fill="blue" />
<rect x="630" y="539" width="4" height="11" fill="blue" />
<rect x="635" y="539" width="4" height="11" fill="blue" />
<rect x="640" y="540" width="4" height="10" fill="blue" />
<rect x="645" y="540" width="4" height="10" fill="blue" />
<rect x="650" y="540" width="4" height="10" fill="blue" />
<rect x="655" y="540" width="4" height="10" fill="blue" />
<rect x="660" y="540" width="4" height="10" fill="blue" />
<rect x="665" y="540" width="4" height="10" fill="blue" />
<rect x="670" y="540" width="4" height="10" fill="blue" />
<rect x="675" y="540" width="4" height="10" fill="blue" />
<rect x="680" y="540" width="4" height="10" fill="blue" />
<rect x="685" y="540" width="4" height="10" fill="blue" />
<rect x="690" y="540" width="4" height="10" fill="blue" />
<rect x="695" y="540" width="4" height="10" fill="blue" />
<rect x="700" y="540" width="4" height="10" fill="blue" />
<rect x="705" y="540" width="4" height="10" fill="blue" />
<rect x="710" y="541" width="4" height="9" fill="blue" />
<rect x="715" y="541" width="4" height="9" fill="blue" />
<rect x="720" y="541" width="4" height="9" fill="blue" />
<rect x="725" y="541" width="4" height="9" fill="blue" />
<rect x="730" y="541" width="4" height="9" fill="blue" />
<rect x="735" y="541" width="4" height="9" fill="blue" />
<rect x="740" y="541" width="4" height="9" fill="blue" />
<rect x="745" y="541" width="4" height="9" fill="blue" />
<rect x="750" y="541" width="4" height="9" fill="blue" />
<rect x="755" y="541" width="4" height="9" fill="blue" />
<rect x="760" y="541" width="4" height="9" fill="blue" />
<rect x="765" y="542" width="4" height="8" fill="blue" />
<rect x="770" y="542" width="4" height="8" fill="blue" />
<rect x="775" y="542" width="4" height="8" fill="blue" />
<rect x="780" y="542" width="4" height="8" fill="blue" />
<rect x="785" y="542" width="4" height="8" fill="blue" />
<rect x="790" y="542" width="4" height="8" fill="blue" />
<rect x="795" y="542" width="4" height="8" fill="blue" />
<rect x="800" y="542" width="4" height="8" fill="blue" />
</svg>